<svg width="1154" height="345" viewBox="0 0 1154 345" fill="none" xmlns="http://www.w3.org/2000/svg">
<mask id="mask0_1010_306" style="mask-type:luminance" maskUnits="userSpaceOnUse" x="0" y="31" width="310" height="310">
<path d="M0 341L310 341L310 31L0 31L0 341Z" fill="white"/>
</mask>
<g mask="url(#mask0_1010_306)">
<path d="M155.041 186.041L0 186.041L0 341.082C85.5883 341.082 155.041 271.676 155.041 186.041ZM155.041 186.041H310.082L310.082 31C224.494 31 155.041 100.407 155.041 186.041Z" fill="url(#paint0_linear_1010_306)"/>
</g>
<path d="M318.68 341V31.4H460.28C510.68 31.4 550.52 71.72 550.52 117.8C550.52 139.4 541.4 157.64 527 171.56C551.96 188.36 569.24 215.24 569.24 245.96C569.24 298.28 526.04 341 472.28 341H318.68ZM384.44 153.32H452.12C469.88 153.32 485.24 138.44 485.24 120.68C485.24 102.92 469.88 88.04 451.64 88.04H384.44V153.32ZM384.44 284.36H463.64C485.72 284.36 503.96 267.08 503.96 245.96C503.96 224.36 485.72 206.6 464.12 206.6H384.44V284.36ZM611.514 89.48V31.88H677.274V89.48H611.514ZM611.514 341V113.96H677.274V341H611.514ZM837.283 344.36C785.443 344.36 749.443 306.92 748.963 252.2V157.64H709.123V113.96H748.963V56.36L814.723 40.04V113.96H878.563V157.64H814.723V247.88C814.723 271.4 827.203 287.24 845.443 287.24C856.483 287.24 867.523 280.04 873.763 269L896.803 321.32C880.483 335.24 859.363 344.36 837.283 344.36ZM1000.97 344.36C948.17 344.36 908.81 311.24 908.81 270.44C908.81 229.16 949.61 196.04 1001.45 196.04C1028.81 196.04 1051.85 204.2 1067.69 217.16V190.28C1067.69 168.68 1042.25 156.68 1014.89 156.68C993.77 156.68 971.69 164.36 959.69 176.36L926.57 142.28C949.13 121.64 981.77 108.68 1020.65 108.68C1085.45 108.68 1133.45 144.2 1133.45 190.28V341H1067.69V320.36C1051.85 335.24 1026.89 344.36 1000.97 344.36ZM1020.17 304.04C1046.09 304.04 1067.69 288.68 1067.69 269.96V251.24C1057.13 242.12 1039.37 236.36 1021.13 236.36C994.73 236.36 974.09 251.24 974.09 270.44C974.09 290.12 995.21 304.04 1020.17 304.04Z" fill="white"/>
<defs>
<linearGradient id="paint0_linear_1010_306" x1="309.928" y1="186.298" x2="-0.0719498" y2="186.298" gradientUnits="userSpaceOnUse">
<stop stop-color="#7EE8A8"/>
<stop offset="1" stop-color="#00C6AE"/>
</linearGradient>
</defs>
</svg>
